<?xml version="1.0" encoding="utf-8"?>
<!-- Generator: Adobe Illustrator 25.0.0, SVG Export Plug-In . SVG Version: 6.00 Build 0)  -->
<svg version="1.1" id="Layer_1" xmlns="http://www.w3.org/2000/svg" xmlns:xlink="http://www.w3.org/1999/xlink" x="0px" y="0px"
	 viewBox="0 0 91.5 228.1" style="enable-background:new 0 0 91.5 228.1;" xml:space="preserve">
<style type="text/css">
	.st0{fill:url(#SVGID_1_);}
	.st1{opacity:0.4;clip-path:url(#SVGID_3_);fill:url(#SVGID_4_);enable-background:new    ;}
	.st2{fill:url(#SVGID_5_);}
	.st3{fill:#FFFFFF;}
	.st4{fill:url(#SVGID_6_);}
	.st5{fill:#ED2525;}
	.st6{fill:url(#SVGID_7_);}
	.st7{fill:url(#SVGID_8_);}
	.st8{fill:url(#SVGID_9_);}
	.st9{fill:url(#SVGID_10_);}
	.st10{fill:url(#SVGID_11_);}
	.st11{fill:url(#SVGID_12_);}
	.st12{fill:url(#SVGID_13_);}
	.st13{fill:url(#SVGID_14_);}
	.st14{fill:url(#SVGID_15_);}
	.st15{fill:url(#SVGID_16_);}
	.st16{fill:url(#SVGID_17_);}
</style>
<g id="_x34__2_">
	<g id="_x34_">
		<g>
			
				<linearGradient id="SVGID_1_" gradientUnits="userSpaceOnUse" x1="42.4148" y1="87.5185" x2="49.2984" y2="87.5185" gradientTransform="matrix(1 0 0 -1 0 230)">
				<stop  offset="0" style="stop-color:#B0B1B4"/>
				<stop  offset="0.121" style="stop-color:#CFCFD1"/>
				<stop  offset="0.2581" style="stop-color:#FFFFFF"/>
				<stop  offset="0.3387" style="stop-color:#FFFFFF"/>
				<stop  offset="0.3725" style="stop-color:#B9B4B4"/>
				<stop  offset="0.4132" style="stop-color:#837D7D"/>
				<stop  offset="0.4523" style="stop-color:#615A5A"/>
				<stop  offset="0.4889" style="stop-color:#4B4646"/>
				<stop  offset="0.5219" style="stop-color:#3F3B3B"/>
				<stop  offset="0.5484" style="stop-color:#3B3738"/>
				<stop  offset="0.624" style="stop-color:#3B3838"/>
				<stop  offset="0.6512" style="stop-color:#3F3B3C"/>
				<stop  offset="0.6706" style="stop-color:#444142"/>
				<stop  offset="0.6862" style="stop-color:#4C494A"/>
				<stop  offset="0.6989" style="stop-color:#565455"/>
				<stop  offset="0.8226" style="stop-color:#646364"/>
				<stop  offset="1" style="stop-color:#99999A"/>
			</linearGradient>
			<path class="st0" d="M42.4,222.2V61.9h6.9v160.3C49.3,223.3,42.4,223.4,42.4,222.2z"/>
			<g>
				<g>
					<defs>
						<path id="SVGID_2_" d="M42.4,222.2V61.9h6.9v160.3C49.3,224.1,42.4,224.1,42.4,222.2z"/>
					</defs>
					<clipPath id="SVGID_3_">
						<use xlink:href="#SVGID_2_"  style="overflow:visible;"/>
					</clipPath>
					
						<linearGradient id="SVGID_4_" gradientUnits="userSpaceOnUse" x1="41.2547" y1="154.4" x2="50.2116" y2="154.4" gradientTransform="matrix(1 0 0 -1 0 230)">
						<stop  offset="0.3763" style="stop-color:#242A33"/>
						<stop  offset="0.5894" style="stop-color:#1F252C"/>
						<stop  offset="1" style="stop-color:#15191E"/>
					</linearGradient>
					<path class="st1" d="M41.2,78c0-0.8,2-1.5,4.5-1.5s4.5,0.7,4.5,1.5v-4.8h-8.9L41.2,78z"/>
				</g>
			</g>
		</g>
		<g>
			
				<linearGradient id="SVGID_5_" gradientUnits="userSpaceOnUse" x1="15.6494" y1="203.0941" x2="71.1324" y2="147.611" gradientTransform="matrix(1 0 0 -1 0 230)">
				<stop  offset="0" style="stop-color:#B0B1B4"/>
				<stop  offset="0.121" style="stop-color:#CFCFD1"/>
				<stop  offset="0.2581" style="stop-color:#FFFFFF"/>
				<stop  offset="0.3387" style="stop-color:#FFFFFF"/>
				<stop  offset="0.3725" style="stop-color:#B9B4B4"/>
				<stop  offset="0.4132" style="stop-color:#837D7D"/>
				<stop  offset="0.4523" style="stop-color:#615A5A"/>
				<stop  offset="0.4889" style="stop-color:#4B4646"/>
				<stop  offset="0.5219" style="stop-color:#3F3B3B"/>
				<stop  offset="0.5484" style="stop-color:#3B3738"/>
				<stop  offset="0.624" style="stop-color:#3B3838"/>
				<stop  offset="0.6512" style="stop-color:#3F3B3C"/>
				<stop  offset="0.6706" style="stop-color:#444142"/>
				<stop  offset="0.6862" style="stop-color:#4C494A"/>
				<stop  offset="0.6989" style="stop-color:#565455"/>
				<stop  offset="0.8226" style="stop-color:#646364"/>
				<stop  offset="1" style="stop-color:#99999A"/>
			</linearGradient>
			<path class="st2" d="M42.4,6.3c1.5-2.6,5.2-2.6,6.7,0L67,37.2l17.9,30.9c1.5,2.6-0.4,5.8-3.3,5.8H45.7H10c-3,0-4.8-3.2-3.3-5.8
				l17.9-30.9L42.4,6.3z"/>
			<path class="st3" d="M10,72.8c-1,0-1.8-0.5-2.3-1.3s-0.5-1.8,0-2.7L43.4,6.9c0.5-0.8,1.3-1.3,2.3-1.3s1.8,0.5,2.3,1.3l35.7,61.9
				c0.5,0.8,0.5,1.8,0,2.7c-0.5,0.8-1.3,1.3-2.3,1.3H10z"/>
			
				<linearGradient id="SVGID_6_" gradientUnits="userSpaceOnUse" x1="22.7212" y1="195.9333" x2="65.9963" y2="152.6581" gradientTransform="matrix(1 0 0 -1 0 230)">
				<stop  offset="5.376340e-02" style="stop-color:#D92827"/>
				<stop  offset="0.1716" style="stop-color:#DA2A27"/>
				<stop  offset="0.2141" style="stop-color:#DB2F29"/>
				<stop  offset="0.2443" style="stop-color:#DE362F"/>
				<stop  offset="0.2688" style="stop-color:#E14037"/>
				<stop  offset="0.2898" style="stop-color:#E74C43"/>
				<stop  offset="0.308" style="stop-color:#EF5B53"/>
				<stop  offset="0.3118" style="stop-color:#F15E57"/>
				<stop  offset="0.5796" style="stop-color:#F15E57"/>
				<stop  offset="0.6237" style="stop-color:#F15E57"/>
				<stop  offset="0.6293" style="stop-color:#E85852"/>
				<stop  offset="0.6559" style="stop-color:#D14640"/>
				<stop  offset="0.6864" style="stop-color:#C03733"/>
				<stop  offset="0.7221" style="stop-color:#B42C2A"/>
				<stop  offset="0.7662" style="stop-color:#AC2425"/>
				<stop  offset="0.8281" style="stop-color:#A82023"/>
				<stop  offset="1" style="stop-color:#A61E22"/>
			</linearGradient>
			<path class="st4" d="M10,71.6c-0.5,0-1-0.3-1.3-0.7c-0.3-0.5-0.3-1,0-1.5L44.4,7.5c0.3-0.5,0.7-0.7,1.3-0.7s1,0.3,1.3,0.7
				l35.7,61.9c0.3,0.5,0.3,1,0,1.5s-0.7,0.7-1.3,0.7H10z"/>
			<polygon class="st3" points="15.8,66.5 45.7,14.7 75.6,66.5 			"/>
			<path d="M45.7,58.7C45.7,58.9,45.7,58.9,45.7,58.7c-0.1,0.1-0.1,0.1-0.1,0.1c-0.7,0.4-1.6,0.3-2.1-0.3c-0.6-0.7-1.2-1.5-1.6-2.2
				c-0.1-0.3,0-0.3,0.7-0.6c0.1-0.1,0.4-0.3,0.6-0.4c0.3-0.1,0.3-0.1,0.4,0c0.3,0.4,0.6,0.9,0.9,1.2c0.3,0.4,0.4,0.4,0.9,0.1
				c0.1,0,0.1-0.1,0.3-0.1h0.1v2.2H45.7z M56.7,48.6c-0.7-1.3-1.3-2.8-2.1-4.1c-0.1-0.4-0.6-0.7-1-0.7c-0.7-0.1-1.5-0.1-2.2-0.3
				c-0.6-0.1-1-0.1-1.6-0.3c-0.4,0-1.5,1.2-1.8,1.5c-0.4,0.4-0.3,1-0.1,1.5c0.7,1.5,1.3,2.8,2.1,4.1c0.3,0.4,0.1,0.9-0.3,1.2
				c-0.7,0.4-1.3,0.9-2.1,1.3c-0.7,0.4-1.2,1.2-1.2,2.1c0,0,0,0,0,0.1l0,0c0,0,0,0,0,0.1c0,0.3,0,4.4,0.1,4.8c0,0.6,0.4,1,0.9,1.2
				c0.4,0.1,0.9,0,1.2-0.4c0.3-0.3,0.3-0.6,0.3-1c0-1.2,0-2.5,0-3.7c0-0.6,0.1-1,0.7-1.3c1.3-0.9,2.5-1.8,3.8-2.5
				c0.3-0.3,0.6-0.6,0.6-1c0-0.3,0-0.6-0.1-0.9c-0.3-0.7-0.7-1.5-1-2.2c-0.4-0.7-0.9-1.6-1.3-2.5c0.3,0,0.6,0,0.7,0
				c0.4,0,0.7,0.3,0.9,0.6c0.6,1.2,1,2.2,1.6,3.2c0.3,0.6,1,0.7,1.5,0.4C56.9,49.8,56.9,49.2,56.7,48.6z M43.4,43.5
				c-0.4,0-0.9,0.3-1,0.6c-1.2,1.9-2.3,3.7-3.5,5.6c-0.1,0.3-0.3,0.6,0,1c0.4,0.9,0.9,1.9,1.3,2.8c0.3,0.4,0.1,0.9-0.3,1
				c-0.6,0.3-1.2,0.7-1.8,1c-0.6,0.3-0.9,0.7-1,1.3c-0.3,0.6-0.4,1.3-0.7,1.9c-0.1,0.4-0.4,0.9-0.4,1.3c0,0.4,0.1,0.9,0.6,1
				c0.4,0.1,0.9,0,1.2-0.4c0.1-0.1,0.1-0.3,0.3-0.4c0.3-0.9,0.6-1.6,0.9-2.5c0.1-0.3,0.3-0.6,0.6-0.7c1-0.7,2.2-1.5,3.2-2.1
				c0.7-0.4,1-1.2,1-1.9c0-0.1,0-0.4-0.1-0.6c-0.6-1-1.2-2.2-1.8-3.2c-0.1-0.1-0.1-0.3,0-0.4c0.9-1.2,1.6-2.3,2.5-3.5
				C44.7,44.7,44.6,43.6,43.4,43.5z M57,56.7c0.7-0.3,1.3-0.7,2.1-1c0.4-0.1,0.6-0.6,0.7-1c0.1-0.7-0.3-1.3-1-1.3
				c-0.3,0-0.6,0.1-0.9,0.3c-0.4,0.1-0.7,0.4-1.2,0.6c-0.4,0.1-0.6,0.1-0.9-0.1c-0.4-0.6-0.9-1.2-1.3-1.8c-0.1-0.1-0.1-0.1-0.3,0
				c-0.6,0.3-1,0.7-1.6,1c-0.1,0.1-0.1,0.1,0,0.3c0.6,0.9,1.3,1.6,1.9,2.5c0.4,0.6,1,0.7,1.5,0.7C56.4,57,56.7,56.8,57,56.7z
				 M47.5,47.3c-0.4,0.6-0.7,1.2-1.2,1.8c-0.1,0.1-0.1,0.1-0.3,0.1c-0.4-0.3-1-0.4-1.6-0.7c-0.1-0.1-0.4-0.1-0.6-0.1
				c-0.6,0-1,0.4-1,1c0,0.4,0.1,0.9,0.7,1c0.7,0.3,1.5,0.6,2.3,0.9c0.6,0.3,1.5,0,1.8-0.6c0.3-0.4,0.6-0.9,0.9-1.3
				c0-0.1,0.1-0.1,0-0.3C48.2,48.5,47.9,47.9,47.5,47.3L47.5,47.3z M37.2,54.2c0.6-0.4,1-0.9,1.6-1.2c0.1-0.1,0.1-0.1,0.1-0.3
				c-0.1-0.4-0.4-0.9-0.6-1.3c-0.1-0.1-0.1-0.1-0.3-0.1c-0.4,0.3-0.9,0.6-1.3,0.9c-0.1,0.1-0.3,0.1-0.4,0c-0.3-0.3-0.6-0.6-0.9-1
				c-0.4-0.4-1-0.6-1.3-0.1c-0.4,0.4-0.6,1-0.1,1.6c0.4,0.4,1,1,1.5,1.5c0.3,0.3,0.6,0.4,0.9,0.4C36.8,54.3,37.1,54.3,37.2,54.2z
				 M37.7,44.5c-1.2,0-2.2,1-2.2,2.2c0,1.2,1,2.2,2.2,2.2c1.2,0,2.2-1,2.2-2.2S38.8,44.5,37.7,44.5z M46.6,39.4
				c-1.3,0-2.5,1-2.5,2.5c0,1.3,1,2.5,2.5,2.5c1.3,0,2.5-1,2.5-2.5C49.1,40.6,47.9,39.4,46.6,39.4z"/>
			<path class="st5" d="M53.8,35c-4.5-4.5-11.9-4.5-16.4,0s-4.5,11.9,0,16.4s11.9,4.5,16.4,0S58.3,39.5,53.8,35z M39.4,37
				c1.7-1.7,3.9-2.6,6.2-2.6c1.8,0,3.5,0.5,5,1.5L38.3,48.2c-1-1.4-1.5-3.2-1.5-5C36.8,40.9,37.7,38.7,39.4,37z M45.6,52
				c-1.8,0-3.5-0.5-5-1.5l12.2-12.2c1,1.4,1.5,3.2,1.5,5c0,2.3-0.9,4.5-2.6,6.2S47.9,52,45.6,52z"/>
		</g>
		<g>
			
				<linearGradient id="SVGID_7_" gradientUnits="userSpaceOnUse" x1="45.8696" y1="155.7739" x2="45.8696" y2="158.6483" gradientTransform="matrix(1 0 0 -1 0 230)">
				<stop  offset="0" style="stop-color:#646364"/>
				<stop  offset="0.4925" style="stop-color:#878788"/>
				<stop  offset="1" style="stop-color:#B0B1B4"/>
			</linearGradient>
			<path class="st6" d="M49.2,70.9h-6.7c-0.1,0-0.2,0.1-0.2,0.2V75l3.8-0.6c0.1,0,3.3,0.7,3.3,0.6v-3.9C49.5,71,49.4,70.9,49.2,70.9
				z"/>
			<g>
				
					<linearGradient id="SVGID_8_" gradientUnits="userSpaceOnUse" x1="-223.6388" y1="237.5009" x2="-222.5464" y2="237.5009" gradientTransform="matrix(0 -1 -1 0 280.8009 -151.1348)">
					<stop  offset="0" style="stop-color:#3F3B3C"/>
					<stop  offset="1" style="stop-color:#231F20"/>
				</linearGradient>
				<circle class="st7" cx="43.3" cy="72" r="0.5"/>
				
					<radialGradient id="SVGID_9_" cx="-223.2976" cy="237.813" r="0.8071" gradientTransform="matrix(0 -1 -1 0 280.8009 -151.1348)" gradientUnits="userSpaceOnUse">
					<stop  offset="0.2338" style="stop-color:#E8F6FB"/>
					<stop  offset="0.2492" style="stop-color:#DEEBF0"/>
					<stop  offset="0.3246" style="stop-color:#B6C8CE"/>
					<stop  offset="0.3982" style="stop-color:#99B1B7"/>
					<stop  offset="0.4687" style="stop-color:#86A2A9"/>
					<stop  offset="0.5346" style="stop-color:#7B99A0"/>
					<stop  offset="0.5915" style="stop-color:#77969D"/>
					<stop  offset="0.7307" style="stop-color:#465A60"/>
					<stop  offset="0.7957" style="stop-color:#35474D"/>
					<stop  offset="1" style="stop-color:#748686"/>
				</radialGradient>
				<path class="st8" d="M43.3,71.6c0.2,0,0.4,0.2,0.4,0.4s-0.2,0.4-0.4,0.4s-0.4-0.2-0.4-0.4S43.1,71.6,43.3,71.6z"/>
			</g>
			<g>
				
					<linearGradient id="SVGID_10_" gradientUnits="userSpaceOnUse" x1="-223.6388" y1="232.2009" x2="-222.5464" y2="232.2009" gradientTransform="matrix(0 -1 -1 0 280.8009 -151.1348)">
					<stop  offset="0" style="stop-color:#3F3B3C"/>
					<stop  offset="1" style="stop-color:#231F20"/>
				</linearGradient>
				<circle class="st9" cx="48.6" cy="72" r="0.5"/>
				
					<radialGradient id="SVGID_11_" cx="-223.2976" cy="232.5958" r="0.8071" gradientTransform="matrix(0 -1 -1 0 280.8009 -151.1348)" gradientUnits="userSpaceOnUse">
					<stop  offset="0.2338" style="stop-color:#E8F6FB"/>
					<stop  offset="0.2492" style="stop-color:#DEEBF0"/>
					<stop  offset="0.3246" style="stop-color:#B6C8CE"/>
					<stop  offset="0.3982" style="stop-color:#99B1B7"/>
					<stop  offset="0.4687" style="stop-color:#86A2A9"/>
					<stop  offset="0.5346" style="stop-color:#7B99A0"/>
					<stop  offset="0.5915" style="stop-color:#77969D"/>
					<stop  offset="0.7307" style="stop-color:#465A60"/>
					<stop  offset="0.7957" style="stop-color:#35474D"/>
					<stop  offset="1" style="stop-color:#748686"/>
				</radialGradient>
				<path class="st10" d="M48.5,71.6c0.2,0,0.4,0.2,0.4,0.4s-0.2,0.4-0.4,0.4s-0.4-0.2-0.4-0.4S48.3,71.6,48.5,71.6z"/>
			</g>
		</g>
		<g>
			
				<linearGradient id="SVGID_12_" gradientUnits="userSpaceOnUse" x1="41.3653" y1="154.95" x2="50.1653" y2="154.95" gradientTransform="matrix(1 0 0 -1 0 230)">
				<stop  offset="0" style="stop-color:#353434"/>
				<stop  offset="0.5484" style="stop-color:#211F1F"/>
				<stop  offset="0.7729" style="stop-color:#222020"/>
				<stop  offset="0.8537" style="stop-color:#262424"/>
				<stop  offset="0.9114" style="stop-color:#2C292A"/>
				<stop  offset="0.9576" style="stop-color:#333132"/>
				<stop  offset="0.9971" style="stop-color:#3D3B3B"/>
				<stop  offset="1" style="stop-color:#3E3C3C"/>
			</linearGradient>
			<path class="st11" d="M50.2,75.3c0-0.2-1.8-0.7-4.4-0.7c-2.5,0-4.4,0.4-4.4,0.6c0,0.1,0.3,0.2,1,0.3c0.8-0.9,6.7-0.7,6.9,0
				C50,75.4,50.2,75.3,50.2,75.3z"/>
			
				<linearGradient id="SVGID_13_" gradientUnits="userSpaceOnUse" x1="41.2869" y1="155.65" x2="50.2798" y2="155.65" gradientTransform="matrix(1 0 0 -1 0 230)">
				<stop  offset="0" style="stop-color:#B0B1B4"/>
				<stop  offset="0.121" style="stop-color:#CFCFD1"/>
				<stop  offset="0.2581" style="stop-color:#FFFFFF"/>
				<stop  offset="0.3387" style="stop-color:#FFFFFF"/>
				<stop  offset="0.3725" style="stop-color:#B9B4B4"/>
				<stop  offset="0.4132" style="stop-color:#837D7D"/>
				<stop  offset="0.4523" style="stop-color:#615A5A"/>
				<stop  offset="0.4889" style="stop-color:#4B4646"/>
				<stop  offset="0.5219" style="stop-color:#3F3B3B"/>
				<stop  offset="0.5484" style="stop-color:#3B3738"/>
				<stop  offset="0.624" style="stop-color:#3B3838"/>
				<stop  offset="0.6512" style="stop-color:#3F3B3C"/>
				<stop  offset="0.6706" style="stop-color:#444142"/>
				<stop  offset="0.6862" style="stop-color:#4C494A"/>
				<stop  offset="0.6989" style="stop-color:#565455"/>
				<stop  offset="0.8226" style="stop-color:#646364"/>
				<stop  offset="1" style="stop-color:#99999A"/>
			</linearGradient>
			<path class="st12" d="M50.2,74c-0.1-0.1-0.3-0.1-0.4-0.2c-0.2,0-0.4-0.1-0.7-0.1c-0.4-0.1-0.8-0.1-1.2-0.2
				c-0.7-0.1-1.4-0.1-2.2-0.1c-1.2,0-2.7,0-4.3,0.4c-0.1,0-0.2,0.2-0.2,0.3l0.1,1.1c0-0.2,1.9-0.6,4.4-0.6s4.4,0.5,4.4,0.7
				c0-0.3,0.1-0.5,0.1-0.8C50.3,74.3,50.3,74.2,50.2,74z"/>
		</g>
		<g>
			<g>
				
					<linearGradient id="SVGID_14_" gradientUnits="userSpaceOnUse" x1="-221.0348" y1="209.4009" x2="-218.3038" y2="209.4009" gradientTransform="matrix(0 -1 -1 0 280.8009 -151.1348)">
					<stop  offset="0" style="stop-color:#3F3B3C"/>
					<stop  offset="1" style="stop-color:#231F20"/>
				</linearGradient>
				<circle class="st13" cx="71.4" cy="68.5" r="1.4"/>
				
					<radialGradient id="SVGID_15_" cx="-220.1811" cy="210.2513" r="2.0178" gradientTransform="matrix(0 -1 -1 0 280.8009 -151.1348)" gradientUnits="userSpaceOnUse">
					<stop  offset="0.2338" style="stop-color:#E8F6FB"/>
					<stop  offset="0.2492" style="stop-color:#DEEBF0"/>
					<stop  offset="0.3246" style="stop-color:#B6C8CE"/>
					<stop  offset="0.3982" style="stop-color:#99B1B7"/>
					<stop  offset="0.4687" style="stop-color:#86A2A9"/>
					<stop  offset="0.5346" style="stop-color:#7B99A0"/>
					<stop  offset="0.5915" style="stop-color:#77969D"/>
					<stop  offset="0.7307" style="stop-color:#465A60"/>
					<stop  offset="0.7957" style="stop-color:#35474D"/>
					<stop  offset="1" style="stop-color:#748686"/>
				</radialGradient>
				<path class="st14" d="M71.4,67.5c0.6,0,1,0.5,1,1c0,0.6-0.5,1-1,1c-0.6,0-1-0.5-1-1C70.3,68,70.8,67.5,71.4,67.5z"/>
			</g>
			<g>
				
					<linearGradient id="SVGID_16_" gradientUnits="userSpaceOnUse" x1="-221.0348" y1="260.7009" x2="-218.3038" y2="260.7009" gradientTransform="matrix(0 -1 -1 0 280.8009 -151.1348)">
					<stop  offset="0" style="stop-color:#3F3B3C"/>
					<stop  offset="1" style="stop-color:#231F20"/>
				</linearGradient>
				<circle class="st15" cx="20.1" cy="68.5" r="1.4"/>
				
					<radialGradient id="SVGID_17_" cx="-220.1811" cy="261.5704" r="2.0178" gradientTransform="matrix(0 -1 -1 0 280.8009 -151.1348)" gradientUnits="userSpaceOnUse">
					<stop  offset="0.2338" style="stop-color:#E8F6FB"/>
					<stop  offset="0.2492" style="stop-color:#DEEBF0"/>
					<stop  offset="0.3246" style="stop-color:#B6C8CE"/>
					<stop  offset="0.3982" style="stop-color:#99B1B7"/>
					<stop  offset="0.4687" style="stop-color:#86A2A9"/>
					<stop  offset="0.5346" style="stop-color:#7B99A0"/>
					<stop  offset="0.5915" style="stop-color:#77969D"/>
					<stop  offset="0.7307" style="stop-color:#465A60"/>
					<stop  offset="0.7957" style="stop-color:#35474D"/>
					<stop  offset="1" style="stop-color:#748686"/>
				</radialGradient>
				<path class="st16" d="M20.1,67.5c0.6,0,1,0.5,1,1c0,0.6-0.5,1-1,1c-0.6,0-1-0.5-1-1C19,68,19.5,67.5,20.1,67.5z"/>
			</g>
		</g>
	</g>
</g>
</svg>
