<svg xmlns="http://www.w3.org/2000/svg" viewBox="0 0 395.25 124.01"><defs><style>.cls-1{fill:#f8bc16;}.cls-2{fill:#fff;}</style></defs><g id="Layer_2" data-name="Layer 2"><g id="Layer_1-2" data-name="Layer 1"><g id="Group_263" data-name="Group 263"><circle id="Ellipse_8" data-name="Ellipse 8" class="cls-1" cx="62" cy="62" r="62"/><g id="Group_262" data-name="Group 262"><path id="Path_349" data-name="Path 349" class="cls-2" d="M60.37,88.33H45.82a4.62,4.62,0,0,0-4.4,3.18l-1.13,3.41a4.63,4.63,0,0,1-4.4,3.18H28.35a4.63,4.63,0,0,1-4.64-4.63A4.75,4.75,0,0,1,24,91.88L42.46,41.22a4.64,4.64,0,0,1,4.35-3H59.54a4.64,4.64,0,0,1,4.35,3l18.4,50.66a4.63,4.63,0,0,1-2.77,5.94,4.55,4.55,0,0,1-1.59.28H70.3a4.63,4.63,0,0,1-4.4-3.18l-1.13-3.41A4.61,4.61,0,0,0,60.37,88.33ZM57.52,69.47h0a4.63,4.63,0,0,0-8.8,0h0a4.63,4.63,0,0,0,3,5.85,4.78,4.78,0,0,0,1.45.23h0a4.64,4.64,0,0,0,4.64-4.63A4.57,4.57,0,0,0,57.52,69.47Z"/></g><path id="Path_350" data-name="Path 350" class="cls-2" d="M151,60.94q4.31,4.55,4.29,12.41v21.7a1.49,1.49,0,0,1-1.48,1.49H142.85a1.49,1.49,0,0,1-1.48-1.49V75.19a6.67,6.67,0,0,0-1.78-5,7.42,7.42,0,0,0-9.64,0,6.67,6.67,0,0,0-1.77,5V95.05a1.49,1.49,0,0,1-1.49,1.49H115.76a1.49,1.49,0,0,1-1.48-1.49V75.19a6.79,6.79,0,0,0-1.74-5,6.41,6.41,0,0,0-4.79-1.78,6.17,6.17,0,0,0-6.67,6.74V95.05a1.49,1.49,0,0,1-1.48,1.49H88.67a1.49,1.49,0,0,1-1.49-1.49V58.24a1.49,1.49,0,0,1,1.49-1.48H99.6a1.48,1.48,0,0,1,1.48,1.48v.06a1.48,1.48,0,0,0,2.45,1.13,14.32,14.32,0,0,1,2.34-1.5,14.6,14.6,0,0,1,6.77-1.53,16,16,0,0,1,7.84,1.92,13.83,13.83,0,0,1,4.34,3.75,1.47,1.47,0,0,0,2.06.25,1,1,0,0,0,.21-.21,16.65,16.65,0,0,1,4.42-3.68,15,15,0,0,1,7.66-2Q146.69,56.4,151,60.94Z"/><path id="Path_351" data-name="Path 351" class="cls-2" d="M204.8,58.83l-24,55.75a1.51,1.51,0,0,1-1.37.9h-11.8a1.49,1.49,0,0,1-1.49-1.49,1.48,1.48,0,0,1,.14-.62l8.25-17.93a1.46,1.46,0,0,0,0-1.21l-15.16-35.4a1.47,1.47,0,0,1,.78-1.95,1.43,1.43,0,0,1,.58-.12H173a1.49,1.49,0,0,1,1.39,1l6.59,17.76a1.48,1.48,0,0,0,2.79,0l6.36-17.73a1.48,1.48,0,0,1,1.4-1h11.94a1.49,1.49,0,0,1,1.37,2.07Z"/><path id="Path_352" data-name="Path 352" class="cls-2" d="M242,63a1.44,1.44,0,0,1-1.17-.58A8.11,8.11,0,0,0,237.92,60,10.75,10.75,0,0,0,233,58.88a10.47,10.47,0,0,0-8.26,3.4q-3,3.41-3,9.15,0,6.45,3.22,9.82t9.4,3.37a10.59,10.59,0,0,0,9-4.18A1.49,1.49,0,0,0,242.15,78h-9.87a1.49,1.49,0,0,1-1.48-1.49v-7A1.48,1.48,0,0,1,232.28,68h23a1.48,1.48,0,0,1,1.49,1.48V81.19a1.57,1.57,0,0,1-.12.6A25.3,25.3,0,0,1,252,88.94a24.41,24.41,0,0,1-8,5.71,25.87,25.87,0,0,1-11,2.24,26.85,26.85,0,0,1-13.3-3.23,22.45,22.45,0,0,1-8.93-9,29.13,29.13,0,0,1,0-26.38,22.41,22.41,0,0,1,8.9-9A26.54,26.54,0,0,1,232.92,46q9.44,0,15.6,4.54a18.92,18.92,0,0,1,7.22,10.54,1.49,1.49,0,0,1-1.06,1.82,1.58,1.58,0,0,1-.38.05Z"/><path id="Path_353" data-name="Path 353" class="cls-2" d="M301.89,75.23a13.21,13.21,0,0,1-1.81,17.69q-4.4,3.63-12.34,3.62H264.48A1.48,1.48,0,0,1,263,95.05V48a1.49,1.49,0,0,1,1.49-1.49H287q7.67,0,12,3.4A12.76,12.76,0,0,1,301,66.86a11.23,11.23,0,0,1-3,2.65,1.47,1.47,0,0,0-.47,2,1.52,1.52,0,0,0,.54.5A11.63,11.63,0,0,1,301.89,75.23Zm-25-10.32a1.49,1.49,0,0,0,1.49,1.49h5.53q5.25,0,5.25-4.33t-5.25-4.46h-5.53a1.49,1.49,0,0,0-1.49,1.48Zm13.33,16a4.34,4.34,0,0,0-1.38-3.48,5.82,5.82,0,0,0-3.94-1.21h-6.52a1.49,1.49,0,0,0-1.49,1.49v6.1a1.49,1.49,0,0,0,1.49,1.49H285Q290.22,85.33,290.22,80.94Z"/><path id="Path_354" data-name="Path 354" class="cls-2" d="M311.39,95.09A6.59,6.59,0,0,1,309.16,90a6.72,6.72,0,0,1,2.23-5.18,9.44,9.44,0,0,1,11.77,0A6.77,6.77,0,0,1,325.4,90a6.67,6.67,0,0,1-2.24,5.1,8.27,8.27,0,0,1-5.85,2.06A8.51,8.51,0,0,1,311.39,95.09Z"/><path id="Path_355" data-name="Path 355" class="cls-2" d="M331.88,65.83a17.11,17.11,0,0,1,6.1-7.09,15.68,15.68,0,0,1,8.62-2.48,14.52,14.52,0,0,1,7.09,1.63,12.44,12.44,0,0,1,2.14,1.46,1.48,1.48,0,0,0,2.47-1.11h0a1.49,1.49,0,0,1,1.49-1.48h10.93a1.48,1.48,0,0,1,1.48,1.48V95.06a1.48,1.48,0,0,1-1.48,1.48H359.79a1.49,1.49,0,0,1-1.49-1.48v0a1.49,1.49,0,0,0-2.47-1.11,12.79,12.79,0,0,1-2.17,1.48A14.68,14.68,0,0,1,346.6,97,15.68,15.68,0,0,1,338,94.56a17.08,17.08,0,0,1-6.1-7.13,27.3,27.3,0,0,1,0-21.6Zm24.33,4.75A7.19,7.19,0,0,0,346,70.4l-.15.15a8.49,8.49,0,0,0-2.06,6.06,8.6,8.6,0,0,0,2.06,6.06,7.12,7.12,0,0,0,6.95,2.07,2,2,0,0,0,.33-.09q5.13-1.92,5.13-8A8.38,8.38,0,0,0,356.21,70.58Z"/><path id="Path_356" data-name="Path 356" class="cls-1" d="M381.25,51.05A6.57,6.57,0,0,1,379,46a6.73,6.73,0,0,1,2.24-5.18,8.42,8.42,0,0,1,5.92-2.06A8.31,8.31,0,0,1,393,40.8,6.76,6.76,0,0,1,395.25,46,6.56,6.56,0,0,1,393,51.05a9.58,9.58,0,0,1-11.77,0Z"/><rect id="Rectangle_90" data-name="Rectangle 90" class="cls-2" x="380.15" y="56.76" width="13.9" height="39.78" rx="3.35"/></g></g></g></svg>