<svg xmlns="http://www.w3.org/2000/svg" viewBox="0 0 1520.62 555.09"><defs><style>.cls-1{fill:#fff;}.cls-2{fill:#424b54;opacity:0.04;}.cls-12,.cls-13,.cls-14,.cls-2{isolation:isolate;}.cls-3{fill:#262d33;}.cls-4{fill:none;stroke:#ffc616;stroke-miterlimit:10;stroke-width:7.12px;stroke-dasharray:42.71;}.cls-5{fill:#505d68;}.cls-6{fill:#e6e6e6;}.cls-7{fill:#e0e0e0;}.cls-8{fill:#f5f5f5;}.cls-9{opacity:0.6;}.cls-10{fill:#f05a56;}.cls-11{fill:#27292d;}.cls-12{opacity:0.2;}.cls-14{font-size:10px;fill:#f8bc16;font-family:Inter-Medium, Inter;font-weight:500;letter-spacing:0.02em;}.cls-15{letter-spacing:-0.02em;}.cls-16{letter-spacing:0.02em;}</style></defs><g id="Layer_2" data-name="Layer 2"><g id="Layer_1-2" data-name="Layer 1"><rect id="Rectangle_66" data-name="Rectangle 66" class="cls-1" width="1519" height="555"/><path id="Path_191" data-name="Path 191" class="cls-2" d="M1460.9,417.62l-8.81-60h-23.55v-65h2.91v-5.88H1420V261.45h-1.39v25.31h-7.9V266h-1.4v20.74h-47.62v5.88H1365v125h-54.37V365.44h-31V220.29h2.83v-7.12h-6.18v-9.12h-7.12V181.16h-8.59V165h-2.06v16.16h-4.63l-2.8,9h-18.74v13.85h-49v9.12h-6.19v7.12H1180v94.44h-41v92.79L1093.37,387V296.94h7.35v-6.62H1087.8v-18h-55.35v18h-18.07v-18h-9.3v18h-9.29v-18H985.56v18H964.19v6.62h3.25V417.62h-20V191.51h1.91v-2.86h3.28v-7.8H891.51v-8.68h2v-2.51H860.21v2.51h2v8.68H847.05v7.8h3.27v2.86h2.1V417.62H835.9V340.06h-84v77.56H738.31V167.2H728.22v6.55l-18.61,4.63v-4.25H699.53v6.76l-18.61,4.63v-4.88H670.83V188l-18.61,4.63v-4H642.14v6.53l-18.61,4.63v-3.47H613.44V417.62H599.26V313.05H546.71v82H492.83V325.12H486.2V302.17h3.94v-2.31H472.7v-7.21h-1.86v7.21h-5.58V262.81h-1.39v37.05h-7.26v2.31h4.27v22.95H425.33v53.32H390.71l-10.43,39.19H336.36v-193h-48V216.7h2.72v-2.79H254.69v2.79h2.86V389.24H234.91V331.88H243v-5.2H186V292H175.11v-7.12H150.84V292H131.1V415.77H66.34V324H11.8v72.48H0v73H1519V417.62Z"/><g id="Group_154" data-name="Group 154"><rect id="Rectangle_67" data-name="Rectangle 67" class="cls-3" y="479.99" width="1520.62" height="75.1"/><line id="Line_42" data-name="Line 42" class="cls-4" x1="13.78" y1="520.87" x2="1520.62" y2="520.87"/><rect id="Rectangle_68" data-name="Rectangle 68" class="cls-5" y="469.46" width="1520.62" height="10.54"/></g><g id="Group_228" data-name="Group 228"><g id="Group_227" data-name="Group 227"><g id="Group_226" data-name="Group 226"><g id="Background_Complete" data-name="Background Complete"><g id="Group_195" data-name="Group 195"><g id="Group_192" data-name="Group 192"><path id="Path_192" data-name="Path 192" class="cls-6" d="M717.7,329.67l-9.3,122.79h89.71l9.3-122.79Zm56.42,86.79a19.9,19.9,0,0,1-19.51,18.13,16.58,16.58,0,0,1-16.84-16.31c0-.61,0-1.22.07-1.82l3.28-43.17a19.9,19.9,0,0,1,19.51-18.14,16.58,16.58,0,0,1,16.83,16.32c0,.61,0,1.22-.07,1.82Z"/><path id="Path_193" data-name="Path 193" class="cls-6" d="M826.58,452.46H695.77l.75-8.06H827.33Z"/></g><g id="Group_194" data-name="Group 194"><path id="Path_194" data-name="Path 194" class="cls-7" d="M876.84,406.87h11.59a1.14,1.14,0,0,0,1.14-1.13v-.07l0-.83a1.3,1.3,0,0,0-1.27-1.2H876.68a1.14,1.14,0,0,0-1.14,1.13v.07l0,.83A1.28,1.28,0,0,0,876.84,406.87Z"/><path id="Path_195" data-name="Path 195" class="cls-7" d="M857.48,406.87h11.58a1.13,1.13,0,0,0,1.14-1.13v-.07l0-.83a1.28,1.28,0,0,0-1.26-1.2H857.31a1.13,1.13,0,0,0-1.14,1.13v.07l0,.83A1.28,1.28,0,0,0,857.48,406.87Z"/><path id="Path_196" data-name="Path 196" class="cls-7" d="M897.44,406H627.08a6,6,0,0,1-5.93-5.65L613,237.92a5.32,5.32,0,0,1,5-5.64H888.73a6,6,0,0,1,5.93,5.65l8.14,162.39a5.32,5.32,0,0,1-5,5.64Z"/><path id="Path_197" data-name="Path 197" class="cls-6" d="M900.75,406H630.39a6,6,0,0,1-5.93-5.65l-8.14-162.39a5.33,5.33,0,0,1,5-5.64H892.05a6,6,0,0,1,5.92,5.65l8.14,162.39a5.32,5.32,0,0,1-5,5.64Z"/><path id="Path_198" data-name="Path 198" class="cls-8" d="M632,394.62l-7.57-151a3.33,3.33,0,0,1,3.13-3.52H886.75a3.76,3.76,0,0,1,3.71,3.54l7.57,151a3.33,3.33,0,0,1-3.12,3.53H635.69A3.76,3.76,0,0,1,632,394.62Z"/><path id="Path_199" data-name="Path 199" class="cls-1" d="M640.36,247.79a3,3,0,0,1-2.76,3.13h-.21a3.32,3.32,0,0,1-3.29-3.13,3,3,0,0,1,2.76-3.12h.21A3.33,3.33,0,0,1,640.36,247.79Z"/><path id="Path_200" data-name="Path 200" class="cls-1" d="M654.53,247.79a3,3,0,0,1-2.76,3.13h-.21a3.32,3.32,0,0,1-3.29-3.13,3,3,0,0,1,2.76-3.12h.22A3.33,3.33,0,0,1,654.53,247.79Z"/><path id="Path_201" data-name="Path 201" class="cls-1" d="M668.71,247.79a3,3,0,0,1-2.77,3.13h-.21a3.31,3.31,0,0,1-3.28-3.13,2.94,2.94,0,0,1,2.76-3.12h.21A3.34,3.34,0,0,1,668.71,247.79Z"/><g id="Group_193" data-name="Group 193" class="cls-9"><path id="Path_202" data-name="Path 202" class="cls-1" d="M658.9,398.16h37.33l34.12-158.09H693Z"/><path id="Path_203" data-name="Path 203" class="cls-1" d="M819.53,398.16H829l34.12-158.09h-9.44Z"/><path id="Path_204" data-name="Path 204" class="cls-1" d="M704.52,398.16h53L791.6,240.07h-53Z"/></g></g></g></g><g id="Character"><path id="Path_205" data-name="Path 205" class="cls-10" d="M700.48,230.8l7.06-7a3.66,3.66,0,0,0-.08-5.12,3.71,3.71,0,0,0-5.15-.07l-7.07,7-7-7a3.72,3.72,0,0,0-5.25-.13l-.05.05a3.65,3.65,0,0,0,0,5.18.76.76,0,0,0,.09.09l7.07,7-7.07,7a3.67,3.67,0,0,0-.16,5.18l.09.09a3.71,3.71,0,0,0,5.25,0l.05-.05,7.07-7,7.07,7a3.71,3.71,0,0,0,5.06-.17,3.65,3.65,0,0,0,.15-5Z"/><path id="Path_206" data-name="Path 206" class="cls-11" d="M844.21,364.69h-.27c-19.58-1.6-33.07-18.35-33.63-19.06a3.29,3.29,0,0,1,5.15-4.09c.15.2,11.7,14.43,27.67,16.46,5.18-5.14,9.54-18.74,9.06-22.86a.45.45,0,0,0,0-.11c-.1-1.33-.35-5.86,1-8.57a3.29,3.29,0,0,1,5.92,2.85,15.09,15.09,0,0,0-.32,5.14c.73,6.77-5.14,23.85-12.5,29.56A3.29,3.29,0,0,1,844.21,364.69Z"/><path id="Path_207" data-name="Path 207" class="cls-11" d="M688.47,346.87a48.41,48.41,0,0,1-35.72-16.39,3.29,3.29,0,0,1-.19-4.15c5.31-7.14,14.68-24,16.14-29.5a8,8,0,0,0-3-3.18,3.3,3.3,0,0,1-1.88-2.65l-.53-5.39a3.29,3.29,0,0,1,6.54-.69V285l.37,3.74a16.38,16.38,0,0,1,5,6.36,3.24,3.24,0,0,1,.24,1.66c-.68,5.84-10.14,22.72-16,31.26A41.12,41.12,0,0,0,690,340.25a3.28,3.28,0,1,1,.6,6.54h0C690.45,346.81,689.69,346.87,688.47,346.87Z"/><path id="Path_208" data-name="Path 208" class="cls-11" d="M794.4,477.24h-8.8a3.29,3.29,0,0,1-3.17-4.17,123.32,123.32,0,0,0,4.28-25.52c-3.11-14.67-6.05-28.1-6.08-28.24a3.29,3.29,0,0,1,6.42-1.4c0,.14,3,13.87,6.19,28.74a3.72,3.72,0,0,1,.06.94,135.21,135.21,0,0,1-3.44,23.08h4.54a3.29,3.29,0,1,1,0,6.57Z"/><path id="Path_209" data-name="Path 209" class="cls-11" d="M726.34,477.24h-5a3.28,3.28,0,0,1-3.28-3.29,3.4,3.4,0,0,1,0-.45c.84-6,5.18-17,9.78-28.05,1.64-14.56,3-27.07,3-27.19a3.28,3.28,0,1,1,6.53.7h0c0,.12-1.39,12.91-3.06,27.69a3.14,3.14,0,0,1-.23.9c-3.26,7.81-7,17-8.68,23.12h.89a3.29,3.29,0,0,1,0,6.57h0Z"/><g id="Group_196" data-name="Group 196"><path id="Path_210" data-name="Path 210" class="cls-1" d="M729.2,252.85l-38.29,38.29c-1.93,42.44-1.77,87,0,133.25H817.52c-2.5-59.65-2.74-117.06,0-171.54Z"/><path id="Path_211" data-name="Path 211" class="cls-11" d="M817.52,425.05H690.91a.67.67,0,0,1-.66-.64c-1.83-48-1.83-92.84,0-133.3a.66.66,0,0,1,.2-.43l38.29-38.29a.66.66,0,0,1,.46-.19h88.32a.65.65,0,0,1,.66.65v0c-2.65,52.46-2.65,108.56,0,171.47a.67.67,0,0,1-.63.69Zm-126-1.32h125.3c-2.6-62.4-2.6-118.1,0-170.22H729.48l-37.92,37.92c-1.82,40.18-1.82,84.68,0,132.3Z"/></g><g id="Group_198" data-name="Group 198"><g id="Group_197" data-name="Group 197"><path id="Path_212" data-name="Path 212" class="cls-11" d="M736.6,332.43c-.14-3.2-2-5.74-4.06-5.66s-3.69,2.73-3.55,5.93,2,5.73,4.07,5.66S736.75,335.63,736.6,332.43Z"/><path id="Path_213" data-name="Path 213" class="cls-11" d="M781,331.43c-.14-3.2-2-5.74-4.07-5.66s-3.68,2.73-3.54,5.93,2,5.74,4.07,5.66S781.15,334.63,781,331.43Z"/><path id="Path_214" data-name="Path 214" class="cls-11" d="M747.69,345.55a26.79,26.79,0,0,1,21,1,.94.94,0,0,1,.37,1.27h0a.94.94,0,0,1-1.29.36,25.84,25.84,0,0,0-23.1.75.94.94,0,0,1-1.27-.4.92.92,0,0,1,.38-1.26h0A31.3,31.3,0,0,1,747.69,345.55Z"/><path id="Path_215" data-name="Path 215" class="cls-11" d="M730.25,302.39a1.89,1.89,0,0,1,1.85,1.95,1.86,1.86,0,0,1-.25.89,18.57,18.57,0,0,1-14.37,9.39,1.91,1.91,0,0,1-2-1.8,1.87,1.87,0,0,1,1.78-1.95h0a14.84,14.84,0,0,0,11.3-7.56A1.86,1.86,0,0,1,730.25,302.39Z"/><path id="Path_216" data-name="Path 216" class="cls-11" d="M774.68,301.31a1.89,1.89,0,0,1,1.71.52,15.15,15.15,0,0,0,12.89,4.65,1.92,1.92,0,0,1,2.23,1.48,1.85,1.85,0,0,1-1.44,2.2h0a19,19,0,0,1-16.33-5.7,1.86,1.86,0,0,1,1-3.16Z"/></g></g><path id="Path_217" data-name="Path 217" class="cls-12" d="M815.62,321.89l-5.37.5a3.84,3.84,0,0,1-4.11-3L798.69,286a3.85,3.85,0,0,1,2.77-4.55l14.41-3.78Z"/><path id="Path_218" data-name="Path 218" class="cls-12" d="M732.73,294.56c-3.74-10.22-7.48-26.57-3.53-41.71l-38.29,38.29C701.73,294.76,719,296.34,732.73,294.56Z"/><g id="Group_199" data-name="Group 199"><path id="Path_219" data-name="Path 219" class="cls-1" d="M729.2,291.14c-4.2-12.4-2.49-29.25,0-38.29l-38.29,38.29C702.5,293.25,715.45,292.92,729.2,291.14Z"/><path id="Path_220" data-name="Path 220" class="cls-11" d="M708.42,293.26a98.27,98.27,0,0,1-17.63-1.47.67.67,0,0,1-.53-.76.64.64,0,0,1,.19-.35l38.29-38.29a.66.66,0,0,1,1.1.63c-2.32,8.42-4.23,25.45,0,37.91a.66.66,0,0,1-.42.83.27.27,0,0,1-.12,0A161.93,161.93,0,0,1,708.42,293.26Zm-16.15-2.55c10.17,1.68,22,1.64,36.06-.12-3.46-11-2.68-25.52-.35-35.6Z"/></g><path id="Path_221" data-name="Path 221" class="cls-11" d="M860.76,347.08a1.09,1.09,0,0,1-1.06-.82l-13.48-51.39a1.1,1.1,0,0,1,2.12-.56l13.48,51.4a1.09,1.09,0,0,1-.78,1.34A1.27,1.27,0,0,1,860.76,347.08Z"/><rect id="Rectangle_69" data-name="Rectangle 69" class="cls-11" x="885.21" y="271.84" width="0.73" height="4.05" transform="translate(-40.52 233.97) rotate(-14.72)"/><path id="Path_222" data-name="Path 222" class="cls-11" d="M883.56,267.64l-2.83-10.8a5.68,5.68,0,0,0-6.94-4.06h0l-7.41,1.94-.18-.71,7.4-1.94a6.41,6.41,0,0,1,7.84,4.58h0l2.83,10.8Z"/><rect id="Rectangle_70" data-name="Rectangle 70" class="cls-11" x="804.51" y="263.06" width="80.18" height="42.67" rx="5.24" transform="translate(-44.54 223.9) rotate(-14.72)"/><rect id="Rectangle_71" data-name="Rectangle 71" class="cls-11" x="824.28" y="299.47" width="53.44" height="18.64" rx="5.24" transform="matrix(0.97, -0.25, 0.25, 0.97, -50.51, 226.1)"/><g id="Group_225" data-name="Group 225"><g id="Group_220" data-name="Group 220"><g id="Group_209" data-name="Group 209"><g id="Group_208" data-name="Group 208"><g id="Group_203" data-name="Group 203"><g id="Group_202" data-name="Group 202"><g id="Group_201" data-name="Group 201"><g id="Group_200" data-name="Group 200"><path id="Path_223" data-name="Path 223" class="cls-11" d="M683.76,263.75a34.25,34.25,0,0,1-20.87-43.7h0a34.23,34.23,0,1,1,20.87,43.7Zm-18.7-42.94a32,32,0,1,0,11.83-15.53A32,32,0,0,0,665.06,220.81Z"/></g></g></g></g><g id="Group_207" data-name="Group 207"><g id="Group_206" data-name="Group 206"><g id="Group_205" data-name="Group 205"><g id="Group_204" data-name="Group 204"><path id="Path_224" data-name="Path 224" class="cls-11" d="M663.87,305.87h0a4.25,4.25,0,0,0,5.55-2.32L685.6,264.1a.73.73,0,0,0-.4-1h0L680,261a.73.73,0,0,0-.94.37l-17.46,38.8a4.26,4.26,0,0,0,2.13,5.63Z"/></g></g></g></g></g></g><g id="Group_219" data-name="Group 219"><g id="Group_218" data-name="Group 218"><g id="Group_213" data-name="Group 213"><g id="Group_212" data-name="Group 212"><g id="Group_211" data-name="Group 211"><g id="Group_210" data-name="Group 210"><path id="Path_225" data-name="Path 225" class="cls-11" d="M682.66,262.18a34.24,34.24,0,0,1-20.86-43.7h0a34.23,34.23,0,1,1,20.86,43.7ZM664,219.24a32,32,0,1,0,11.83-15.53A32,32,0,0,0,664,219.24Z"/></g></g></g></g><g id="Group_217" data-name="Group 217"><g id="Group_216" data-name="Group 216"><g id="Group_215" data-name="Group 215"><g id="Group_214" data-name="Group 214"><path id="Path_226" data-name="Path 226" class="cls-11" d="M662.87,305.46l.37.16a3.33,3.33,0,0,0,4.34-1.81l17.2-42-6.52-2.67-17.21,41.95A3.32,3.32,0,0,0,662.87,305.46Z"/></g></g></g></g></g></g></g><g id="Group_224" data-name="Group 224"><g id="Group_223" data-name="Group 223"><g id="Group_222" data-name="Group 222"><g id="Group_221" data-name="Group 221"><path id="Path_227" data-name="Path 227" class="cls-7" d="M718,217.71a5.77,5.77,0,0,0-.36-1,8.51,8.51,0,0,0-.51-1.16,13.78,13.78,0,0,0-.78-1.47l-.5-.84c-.18-.29-.4-.57-.6-.87q-.68-.95-1.44-1.83a24.29,24.29,0,0,0-8.53-6.29c-.71-.31-1.44-.59-2.18-.83-.35-.11-.68-.23-1-.32l-.94-.23a15.28,15.28,0,0,0-1.64-.31,9,9,0,0,0-1.26-.15,6.34,6.34,0,0,0-1.07-.05,6.35,6.35,0,0,0,1.06.18,10.33,10.33,0,0,1,1.24.2,14.44,14.44,0,0,1,1.61.35l.93.25c.33.09.65.22,1,.34.69.21,1.4.53,2.14.84a25.13,25.13,0,0,1,8.43,6.22c.53.62,1,1.2,1.45,1.79.21.3.43.57.61.85l.51.81c.35.51.58,1,.82,1.44a11.86,11.86,0,0,1,.56,1.13A7.1,7.1,0,0,0,718,217.71Z"/></g></g></g></g></g></g></g></g><g id="No_Data_Found" data-name="No Data Found" class="cls-13"><text class="cls-14" transform="translate(826.12 288)">No Data</text><text class="cls-14" transform="translate(826.12 298)"> <tspan class="cls-15" x="2.84" y="0">F</tspan><tspan class="cls-16" x="8.49" y="0">ound</tspan></text></g></g></g></g></svg>