<?xml version="1.0" encoding="utf-8"?>
<!-- Generator: Adobe Illustrator 25.0.0, SVG Export Plug-In . SVG Version: 6.00 Build 0)  -->
<svg version="1.1" id="Layer_1" xmlns="http://www.w3.org/2000/svg" xmlns:xlink="http://www.w3.org/1999/xlink" x="0px" y="0px"
	 viewBox="0 0 68 188" style="enable-background:new 0 0 68 188;" xml:space="preserve">
<style type="text/css">
	.st0{fill:#8492A5;}
	.st1{fill:#676767;}
	.st2{fill:#FFFFFF;stroke:#000000;stroke-width:2.3221;stroke-miterlimit:10;}
</style>
<g>
	<g>
		<g>
			<g>
				<g>
					<g>
						<g>
							<g>
								<rect x="31.3" y="46" class="st0" width="5.9" height="134.4"/>
								
									<image style="overflow:visible;" width="25" height="561" xlink:href="BCFDEF6F.png"  transform="matrix(0.24 0 0 0.24 31.32 45.88)">
								</image>
							</g>
							
								<image style="overflow:visible;opacity:0.81;" width="25" height="69" xlink:href="BCFDEF6D.png"  transform="matrix(0.24 0 0 0.24 31.32 45.88)">
							</image>
						</g>
						
							<image style="overflow:visible;opacity:0.34;" width="16" height="531" xlink:href="BCFDEF73.png"  transform="matrix(0.24 0 0 0.24 32.52 50.92)">
						</image>
						
							<image style="overflow:visible;opacity:0.54;" width="26" height="164" xlink:href="BCFDEF75.png"  transform="matrix(0.24 0 0 0.24 31.08 141.16)">
						</image>
						
							<image style="overflow:visible;" width="4" height="561" xlink:href="BCFDEF77.png"  transform="matrix(0.24 0 0 0.24 31.08 45.88)">
						</image>
						
							<image style="overflow:visible;" width="4" height="562" xlink:href="BCFDEF74.png"  transform="matrix(0.24 0 0 0.24 36.36 45.4)">
						</image>
						
							<image style="overflow:visible;opacity:0.63;" width="26" height="212" xlink:href="BCFDEF7C.png"  transform="matrix(0.24 0 0 0.24 31.08 75.88)">
						</image>
						
							<image style="overflow:visible;" width="24" height="45" xlink:href="BCFDEF7D.png"  transform="matrix(0.24 0 0 0.24 31.32 169.24)">
						</image>
					</g>
					<rect x="31.3" y="46" class="st1" width="5.9" height="134.4"/>
				</g>
				
					<image style="overflow:visible;" width="26" height="4" xlink:href="BCFDEF7F.png"  transform="matrix(0.24 0 0 0.24 31.08 179.56)">
				</image>
			</g>
			<circle class="st2" cx="34" cy="34.2" r="25.5"/>
		</g>
	</g>
	<g>
		<path d="M32,23.4l-3.7,14.3H25l3.5-13.3h-2.8v2.5h-3.1v-5.4H32V23.4z"/>
		<path d="M35.9,36.7c-0.8-0.8-1.2-2-1.2-3.4v-7.4c0-1.5,0.4-2.6,1.3-3.4c0.8-0.8,2-1.2,3.6-1.2c1.6,0,2.8,0.4,3.6,1.2
			c0.8,0.8,1.2,1.9,1.2,3.4v7.4c0,1.5-0.4,2.6-1.3,3.4c-0.8,0.8-2,1.2-3.6,1.2C38,37.9,36.8,37.5,35.9,36.7z M40.9,34.3
			c0.3-0.4,0.4-1,0.4-1.8v-5.8c0-0.8-0.1-1.4-0.4-1.8s-0.7-0.6-1.4-0.6c-0.6,0-1.1,0.2-1.4,0.6s-0.4,1-0.4,1.8v5.8
			c0,0.8,0.1,1.4,0.4,1.8c0.3,0.4,0.7,0.6,1.4,0.6C40.2,34.9,40.6,34.7,40.9,34.3z"/>
	</g>
</g>
<g>
	<path d="M25.4,42.3h1.1V48h-1.1V42.3z M26.1,45.8l2.3-3.5h1.3l-3.5,4.9L26.1,45.8z M27,45.1l0.9-0.6l2,3.5h-1.3L27,45.1z"/>
	<path d="M34.2,42.3h1.4V48h-1v-4.4l0,0.2l-1.1,3.5h-0.9l-1.1-3.4l0-0.3V48h-1v-5.7H32l1.1,3.8L34.2,42.3z"/>
	<path d="M37.1,49.1h-1l2.5-7.4h1L37.1,49.1z"/>
	<path d="M39.9,42.3H41V48h-1.1V42.3z M40.4,44.6h3.3v1h-3.3V44.6z M43,42.3h1.1V48H43V42.3z"/>
</g>
</svg>
