<?xml version="1.0" encoding="utf-8"?>
<!-- Generator: Adobe Illustrator 25.0.0, SVG Export Plug-In . SVG Version: 6.00 Build 0)  -->
<svg version="1.1" id="Layer_1" xmlns="http://www.w3.org/2000/svg" xmlns:xlink="http://www.w3.org/1999/xlink" x="0px" y="0px"
	 viewBox="0 0 65.5 139.1" style="enable-background:new 0 0 65.5 139.1;" xml:space="preserve">
<style type="text/css">
	.st0{fill:#8492A5;}
	.st1{fill:#676767;}
	.st2{fill:#F4CB18;}
	.st3{fill:#F4CB18;stroke:#150704;stroke-miterlimit:10;}
	.st4{fill:#010101;}
	.st5{fill:#EE2726;}
</style>
<g>
	<g>
		<g>
			<g>
				<g>
					<g>
						<g>
							<g>
								<rect x="30.7" y="54.4" class="st0" width="3.5" height="80.1"/>
								
									<image style="overflow:visible;" width="15" height="334" xlink:href="BCFDEF6F.png"  transform="matrix(0.24 0 0 0.24 30.6 54.44)">
								</image>
							</g>
							
								<image style="overflow:visible;opacity:0.81;" width="15" height="41" xlink:href="BCFDEF6D.png"  transform="matrix(0.24 0 0 0.24 30.6 54.44)">
							</image>
						</g>
						
							<image style="overflow:visible;opacity:0.34;" width="10" height="316" xlink:href="BCFDEF73.png"  transform="matrix(0.24 0 0 0.24 31.32 57.32)">
						</image>
						
							<image style="overflow:visible;opacity:0.54;" width="16" height="98" xlink:href="BCFDEF75.png"  transform="matrix(0.24 0 0 0.24 30.6 111.08)">
						</image>
						
							<image style="overflow:visible;" width="2" height="334" xlink:href="BCFDEF77.png"  transform="matrix(0.24 0 0 0.24 30.6 54.44)">
						</image>
						
							<image style="overflow:visible;" width="3" height="333" xlink:href="BCFDEF74.png"  transform="matrix(0.24 0 0 0.24 33.48 54.44)">
						</image>
						
							<image style="overflow:visible;opacity:0.63;" width="15" height="127" xlink:href="BCFDEF7C.png"  transform="matrix(0.24 0 0 0.24 30.6 72.2)">
						</image>
						
							<image style="overflow:visible;" width="14" height="28" xlink:href="BCFDEF7D.png"  transform="matrix(0.24 0 0 0.24 30.6 127.64)">
						</image>
					</g>
					<rect x="30.7" y="54.4" class="st1" width="3.5" height="80.1"/>
				</g>
				
					<image style="overflow:visible;" width="15" height="3" xlink:href="BCFDEF7F.png"  transform="matrix(0.24 0 0 0.24 30.6 133.88)">
				</image>
			</g>
		</g>
	</g>
	<g>
		<rect x="12.2" y="9.8" transform="matrix(-0.7137 0.7004 -0.7004 -0.7137 77.3124 28.9011)" class="st2" width="41" height="41"/>
		
			<rect x="16.8" y="14.2" transform="matrix(-0.7137 0.7004 -0.7004 -0.7137 77.3124 28.9011)" class="st3" width="32" height="32"/>
	</g>
</g>
<path class="st4" d="M30.2,20.1c3.4,0,6.1,2.7,6.1,6.1v11.3l3.1-3.1c0.4-0.4,1-0.4,1.3,0c0.4,0.4,0.4,1,0,1.3c0,0,0,0,0,0L36,40.4
	c-0.4,0.4-1,0.4-1.3,0c0,0,0,0,0,0L30,35.7c-0.4-0.4-0.3-1,0-1.3c0.4-0.3,0.9-0.3,1.3,0l3.1,3.1V26.1c0-2.3-1.9-4.2-4.2-4.2
	S26,23.8,26,26.1v4.2c0,0.5-0.4,0.9-0.9,0.9c-0.5,0-0.9-0.4-0.9-0.9v-4.2C24.2,22.8,26.9,20.1,30.2,20.1z"/>
<path class="st5" d="M39.6,22.1c-3.9-3.9-10.3-3.9-14.3,0s-3.9,10.3,0,14.3s10.3,3.9,14.3,0S43.6,26,39.6,22.1z M27.1,23.8
	c1.4-1.4,3.4-2.2,5.4-2.2c1.6,0,3.1,0.5,4.3,1.3L26.2,33.6c-0.9-1.3-1.3-2.8-1.3-4.3C24.9,27.2,25.6,25.3,27.1,23.8z M32.5,36.9
	c-1.6,0-3.1-0.5-4.3-1.3l10.6-10.6c0.9,1.3,1.3,2.8,1.3,4.3c0,2-0.8,3.9-2.2,5.4C36.4,36.1,34.5,36.9,32.5,36.9z"/>
</svg>
